<mxfile host="app.diagrams.net" modified="2023-11-14T17:00:25.120Z" agent="Mozilla/5.0 (Windows NT 10.0; Win64; x64) AppleWebKit/537.36 (KHTML, like Gecko) Chrome/119.0.0.0 Safari/537.36" etag="82EqCTNyncxc9FpejK4x" version="22.1.1" type="github">
  <diagram name="Страница — 1" id="x9KShDWUF8JoOGh2aWzw">
    <mxGraphModel dx="1313" dy="708" grid="1" gridSize="10" guides="1" tooltips="1" connect="1" arrows="1" fold="1" page="1" pageScale="1" pageWidth="827" pageHeight="1169" math="0" shadow="0">
      <root>
        <mxCell id="0" />
        <mxCell id="1" parent="0" />
        <mxCell id="p8vcNslJ8mDYngNF0bzC-38" value="&lt;b&gt;Функциональные требования&lt;/b&gt;" style="shape=umlFrame;whiteSpace=wrap;html=1;rounded=1;shadow=0;comic=0;labelBackgroundColor=none;strokeWidth=1;fontFamily=Verdana;fontSize=12;align=center;width=220;height=35;" vertex="1" parent="1">
          <mxGeometry y="80" width="800" height="530" as="geometry" />
        </mxCell>
        <mxCell id="p8vcNslJ8mDYngNF0bzC-39" value="" style="rounded=0;whiteSpace=wrap;html=1;fillColor=#d5e8d4;strokeColor=#82b366;" vertex="1" parent="1">
          <mxGeometry x="160" y="120" width="530" height="390" as="geometry" />
        </mxCell>
        <mxCell id="p8vcNslJ8mDYngNF0bzC-1" value="Администратор" style="shape=umlActor;verticalLabelPosition=bottom;verticalAlign=top;html=1;outlineConnect=0;" vertex="1" parent="1">
          <mxGeometry x="720" y="320" width="30" height="60" as="geometry" />
        </mxCell>
        <mxCell id="p8vcNslJ8mDYngNF0bzC-2" value="Добавить пользователя" style="ellipse;whiteSpace=wrap;html=1;fillColor=#ffe6cc;strokeColor=#d79b00;" vertex="1" parent="1">
          <mxGeometry x="480" y="280" width="200" height="40" as="geometry" />
        </mxCell>
        <mxCell id="p8vcNslJ8mDYngNF0bzC-3" value="Создать проект" style="ellipse;whiteSpace=wrap;html=1;fillColor=#ffe6cc;strokeColor=#d79b00;" vertex="1" parent="1">
          <mxGeometry x="480" y="400" width="200" height="40" as="geometry" />
        </mxCell>
        <mxCell id="p8vcNslJ8mDYngNF0bzC-4" value="Удалить пользователя" style="ellipse;whiteSpace=wrap;html=1;fillColor=#ffe6cc;strokeColor=#d79b00;" vertex="1" parent="1">
          <mxGeometry x="480" y="335" width="200" height="45" as="geometry" />
        </mxCell>
        <mxCell id="p8vcNslJ8mDYngNF0bzC-5" value="Менеджер&lt;br&gt;проекта" style="shape=umlActor;verticalLabelPosition=bottom;verticalAlign=top;html=1;outlineConnect=0;" vertex="1" parent="1">
          <mxGeometry x="90" y="320" width="30" height="60" as="geometry" />
        </mxCell>
        <mxCell id="p8vcNslJ8mDYngNF0bzC-6" value="Создать задачу" style="ellipse;whiteSpace=wrap;html=1;fillColor=#ffe6cc;strokeColor=#d79b00;" vertex="1" parent="1">
          <mxGeometry x="210" y="380" width="200" height="50" as="geometry" />
        </mxCell>
        <mxCell id="p8vcNslJ8mDYngNF0bzC-7" value="Редактировать задачу" style="ellipse;whiteSpace=wrap;html=1;fillColor=#ffe6cc;strokeColor=#d79b00;" vertex="1" parent="1">
          <mxGeometry x="210" y="450" width="200" height="50" as="geometry" />
        </mxCell>
        <mxCell id="p8vcNslJ8mDYngNF0bzC-8" value="Изменить состав команды проекта" style="ellipse;whiteSpace=wrap;html=1;fillColor=#ffe6cc;strokeColor=#d79b00;" vertex="1" parent="1">
          <mxGeometry x="210" y="310" width="200" height="50" as="geometry" />
        </mxCell>
        <mxCell id="p8vcNslJ8mDYngNF0bzC-10" value="Редактировать информацию о проекте" style="ellipse;whiteSpace=wrap;html=1;fillColor=#ffe6cc;strokeColor=#d79b00;" vertex="1" parent="1">
          <mxGeometry x="210" y="250" width="200" height="50" as="geometry" />
        </mxCell>
        <mxCell id="p8vcNslJ8mDYngNF0bzC-12" value="Изменить статус задачи" style="ellipse;whiteSpace=wrap;html=1;fillColor=#ffe6cc;strokeColor=#d79b00;" vertex="1" parent="1">
          <mxGeometry x="214" y="130" width="200" height="50" as="geometry" />
        </mxCell>
        <mxCell id="p8vcNslJ8mDYngNF0bzC-22" value="" style="endArrow=none;html=1;rounded=0;" edge="1" parent="1" source="p8vcNslJ8mDYngNF0bzC-5" target="p8vcNslJ8mDYngNF0bzC-10">
          <mxGeometry width="50" height="50" relative="1" as="geometry">
            <mxPoint x="110" y="370" as="sourcePoint" />
            <mxPoint x="160" y="320" as="targetPoint" />
          </mxGeometry>
        </mxCell>
        <mxCell id="p8vcNslJ8mDYngNF0bzC-23" value="" style="endArrow=none;html=1;rounded=0;" edge="1" parent="1" source="p8vcNslJ8mDYngNF0bzC-5" target="p8vcNslJ8mDYngNF0bzC-8">
          <mxGeometry width="50" height="50" relative="1" as="geometry">
            <mxPoint x="120" y="410" as="sourcePoint" />
            <mxPoint x="170" y="360" as="targetPoint" />
          </mxGeometry>
        </mxCell>
        <mxCell id="p8vcNslJ8mDYngNF0bzC-24" value="" style="endArrow=none;html=1;rounded=0;" edge="1" parent="1" source="p8vcNslJ8mDYngNF0bzC-5" target="p8vcNslJ8mDYngNF0bzC-6">
          <mxGeometry width="50" height="50" relative="1" as="geometry">
            <mxPoint x="110" y="460" as="sourcePoint" />
            <mxPoint x="160" y="410" as="targetPoint" />
          </mxGeometry>
        </mxCell>
        <mxCell id="p8vcNslJ8mDYngNF0bzC-25" value="" style="endArrow=none;html=1;rounded=0;" edge="1" parent="1" source="p8vcNslJ8mDYngNF0bzC-5" target="p8vcNslJ8mDYngNF0bzC-7">
          <mxGeometry width="50" height="50" relative="1" as="geometry">
            <mxPoint x="90" y="500" as="sourcePoint" />
            <mxPoint x="140" y="450" as="targetPoint" />
          </mxGeometry>
        </mxCell>
        <mxCell id="p8vcNslJ8mDYngNF0bzC-26" value="" style="endArrow=none;html=1;rounded=0;" edge="1" parent="1" source="p8vcNslJ8mDYngNF0bzC-2" target="p8vcNslJ8mDYngNF0bzC-1">
          <mxGeometry width="50" height="50" relative="1" as="geometry">
            <mxPoint x="700" y="270" as="sourcePoint" />
            <mxPoint x="750" y="220" as="targetPoint" />
          </mxGeometry>
        </mxCell>
        <mxCell id="p8vcNslJ8mDYngNF0bzC-27" value="" style="endArrow=none;html=1;rounded=0;" edge="1" parent="1" source="p8vcNslJ8mDYngNF0bzC-4" target="p8vcNslJ8mDYngNF0bzC-1">
          <mxGeometry width="50" height="50" relative="1" as="geometry">
            <mxPoint x="570" y="520" as="sourcePoint" />
            <mxPoint x="620" y="470" as="targetPoint" />
          </mxGeometry>
        </mxCell>
        <mxCell id="p8vcNslJ8mDYngNF0bzC-28" value="" style="endArrow=none;html=1;rounded=0;" edge="1" parent="1" source="p8vcNslJ8mDYngNF0bzC-3" target="p8vcNslJ8mDYngNF0bzC-1">
          <mxGeometry width="50" height="50" relative="1" as="geometry">
            <mxPoint x="680" y="520" as="sourcePoint" />
            <mxPoint x="730" y="470" as="targetPoint" />
          </mxGeometry>
        </mxCell>
        <mxCell id="p8vcNslJ8mDYngNF0bzC-29" value="Пользователь" style="shape=umlActor;verticalLabelPosition=bottom;verticalAlign=top;html=1;outlineConnect=0;" vertex="1" parent="1">
          <mxGeometry x="399" y="520" width="30" height="60" as="geometry" />
        </mxCell>
        <mxCell id="p8vcNslJ8mDYngNF0bzC-33" value="" style="endArrow=block;html=1;rounded=0;endFill=0;" edge="1" parent="1" target="p8vcNslJ8mDYngNF0bzC-29">
          <mxGeometry width="50" height="50" relative="1" as="geometry">
            <mxPoint x="735" y="410" as="sourcePoint" />
            <mxPoint x="570" y="540" as="targetPoint" />
            <Array as="points">
              <mxPoint x="735" y="550" />
            </Array>
          </mxGeometry>
        </mxCell>
        <mxCell id="p8vcNslJ8mDYngNF0bzC-34" value="" style="endArrow=block;html=1;rounded=0;endFill=0;exitX=0.5;exitY=0.5;exitDx=0;exitDy=0;exitPerimeter=0;" edge="1" parent="1" source="p8vcNslJ8mDYngNF0bzC-35" target="p8vcNslJ8mDYngNF0bzC-29">
          <mxGeometry width="50" height="50" relative="1" as="geometry">
            <mxPoint x="-10" y="240" as="sourcePoint" />
            <mxPoint x="54" y="585" as="targetPoint" />
            <Array as="points">
              <mxPoint x="40" y="190" />
              <mxPoint x="40" y="400" />
              <mxPoint x="40" y="550" />
            </Array>
          </mxGeometry>
        </mxCell>
        <mxCell id="p8vcNslJ8mDYngNF0bzC-35" value="Член команды" style="shape=umlActor;verticalLabelPosition=bottom;verticalAlign=top;html=1;outlineConnect=0;" vertex="1" parent="1">
          <mxGeometry x="90" y="160" width="30" height="60" as="geometry" />
        </mxCell>
        <mxCell id="p8vcNslJ8mDYngNF0bzC-36" value="" style="endArrow=block;html=1;rounded=0;endFill=0;" edge="1" parent="1" source="p8vcNslJ8mDYngNF0bzC-5">
          <mxGeometry width="50" height="50" relative="1" as="geometry">
            <mxPoint y="440" as="sourcePoint" />
            <mxPoint x="105" y="240" as="targetPoint" />
          </mxGeometry>
        </mxCell>
        <mxCell id="p8vcNslJ8mDYngNF0bzC-37" value="" style="endArrow=none;html=1;rounded=0;" edge="1" parent="1" source="p8vcNslJ8mDYngNF0bzC-35" target="p8vcNslJ8mDYngNF0bzC-12">
          <mxGeometry width="50" height="50" relative="1" as="geometry">
            <mxPoint x="160" y="170" as="sourcePoint" />
            <mxPoint x="210" y="120" as="targetPoint" />
          </mxGeometry>
        </mxCell>
        <mxCell id="p8vcNslJ8mDYngNF0bzC-41" value="Отметить время выполнения задачи" style="ellipse;whiteSpace=wrap;html=1;fillColor=#ffe6cc;strokeColor=#d79b00;" vertex="1" parent="1">
          <mxGeometry x="210" y="190" width="200" height="50" as="geometry" />
        </mxCell>
        <mxCell id="p8vcNslJ8mDYngNF0bzC-42" value="" style="endArrow=none;html=1;rounded=0;" edge="1" parent="1" source="p8vcNslJ8mDYngNF0bzC-35" target="p8vcNslJ8mDYngNF0bzC-41">
          <mxGeometry width="50" height="50" relative="1" as="geometry">
            <mxPoint x="140" y="290" as="sourcePoint" />
            <mxPoint x="190" y="240" as="targetPoint" />
          </mxGeometry>
        </mxCell>
      </root>
    </mxGraphModel>
  </diagram>
</mxfile>
